<?xml version="1.0" encoding="utf-8"?>
<!-- Generator: Adobe Illustrator 28.0.0, SVG Export Plug-In . SVG Version: 6.00 Build 0)  -->
<svg version="1.1" id="Layer_1" xmlns="http://www.w3.org/2000/svg" xmlns:xlink="http://www.w3.org/1999/xlink" x="0px" y="0px"
	 viewBox="0 0 216.5 165.3" style="enable-background:new 0 0 216.5 165.3;" xml:space="preserve">
<style type="text/css">
	.st0{fill:none;stroke:#0A422B;stroke-width:4;stroke-miterlimit:10;}
	.st1{fill:#0C422C;}
	.st2{font-family:'MostraNuova-Heavy';}
	.st3{font-size:48px;}
</style>
<path class="st0" d="M82.8,1.7l-9.7,7.4c-30.9,23.5-36.6,58.7-14.7,91.2l5.6,8.3"/>
<path class="st0" d="M82.5,4.3L89,14.5c20.8,32.6,14.1,67.7-17.4,90.8l-8,5.9"/>
<circle class="st0" cx="75.4" cy="36.3" r="6"/>
<circle class="st0" cx="72.2" cy="57.4" r="6"/>
<circle class="st0" cx="69.4" cy="78.9" r="6"/>
<path class="st0" d="M108.2,17.9l-2.4,12C98.1,68,117.2,98.2,155.1,108l9.7,2.5"/>
<path class="st0" d="M109.6,20.1l11.7,3.4c37.2,10.7,55.4,41.5,47,79.6l-2.1,9.7"/>
<circle class="st0" cx="125.6" cy="48.8" r="6"/>
<circle class="st0" cx="137.1" cy="66.8" r="6"/>
<circle class="st0" cx="149.3" cy="84.7" r="6"/>
<line class="st0" x1="33.1" y1="114.1" x2="189.1" y2="114.1"/>
<text transform="matrix(1 0 0 1 0 163.743)" class="st1 st2 st3">Bean Pods</text>
</svg>
